<svg width="1900" height="1200" viewBox="0 0 1900 1200" fill="none" xmlns="http://www.w3.org/2000/svg">
  <defs>
    <linearGradient id="bg" x1="0" y1="0" x2="1900" y2="1200" gradientUnits="userSpaceOnUse">
      <stop stop-color="#f8fafc"/>
      <stop offset="0.52" stop-color="#eef6ff"/>
      <stop offset="1" stop-color="#e2e8f0"/>
    </linearGradient>
    <linearGradient id="blue" x1="0" y1="0" x2="1" y2="1">
      <stop stop-color="#2563eb"/>
      <stop offset="1" stop-color="#1d4ed8"/>
    </linearGradient>
    <linearGradient id="green" x1="0" y1="0" x2="1" y2="1">
      <stop stop-color="#10b981"/>
      <stop offset="1" stop-color="#047857"/>
    </linearGradient>
    <linearGradient id="glass" x1="0" y1="0" x2="1" y2="1">
      <stop stop-color="#ffffff" stop-opacity="0.96"/>
      <stop offset="1" stop-color="#ffffff" stop-opacity="0.62"/>
    </linearGradient>
    <linearGradient id="truckFloor" x1="670" y1="875" x2="1560" y2="430" gradientUnits="userSpaceOnUse">
      <stop stop-color="#94a3b8"/>
      <stop offset="0.45" stop-color="#dbe3ef"/>
      <stop offset="1" stop-color="#f8fafc"/>
    </linearGradient>
    <linearGradient id="wood" x1="0" y1="0" x2="1" y2="1">
      <stop stop-color="#8B7355"/>
      <stop offset="0.5" stop-color="#b89466"/>
      <stop offset="1" stop-color="#6f5438"/>
    </linearGradient>
    <pattern id="floorGrid" width="32" height="32" patternUnits="userSpaceOnUse">
      <path d="M32 0H0V32" stroke="#2563eb" stroke-opacity="0.12" stroke-width="1"/>
    </pattern>
    <pattern id="woodPattern" width="36" height="18" patternUnits="userSpaceOnUse">
      <rect width="36" height="18" fill="#8B7355"/>
      <path d="M0 5C8 1 17 9 36 4M0 14C11 10 19 19 36 13" stroke="#6f5438" stroke-opacity="0.45" stroke-width="1.5"/>
    </pattern>
    <pattern id="cardboardPattern" width="18" height="18" patternUnits="userSpaceOnUse">
      <rect width="18" height="18" fill="#B8956B"/>
      <path d="M0 5C4 2 8 8 12 5C15 3 17 4 18 5M0 13C4 10 8 16 12 13C15 11 17 12 18 13" stroke="#8a6845" stroke-opacity="0.38" stroke-width="1"/>
    </pattern>
    <pattern id="fabricPattern" width="20" height="20" patternUnits="userSpaceOnUse">
      <rect width="20" height="20" fill="#475569"/>
      <path d="M0 0L20 20M20 0L0 20" stroke="#334155" stroke-opacity="0.45" stroke-width="1"/>
    </pattern>
    <filter id="shadow" x="-20%" y="-20%" width="140%" height="140%">
      <feDropShadow dx="0" dy="28" stdDeviation="32" flood-color="#0f172a" flood-opacity="0.18"/>
    </filter>
    <filter id="soft" x="-30%" y="-30%" width="160%" height="160%">
      <feGaussianBlur stdDeviation="18"/>
    </filter>
    <style>
      .title{font:900 48px Arial,sans-serif;fill:#0f172a;letter-spacing:-2px}
      .subtitle{font:600 20px Arial,sans-serif;fill:#475569}
      .h{font:900 25px Arial,sans-serif;fill:#111827}
      .h2{font:900 18px Arial,sans-serif;fill:#111827}
      .txt{font:700 15px Arial,sans-serif;fill:#475569}
      .muted{font:700 13px Arial,sans-serif;fill:#64748b}
      .white{font:900 15px Arial,sans-serif;fill:white}
      .smallwhite{font:800 12px Arial,sans-serif;fill:white}
      .blueText{font:900 13px Arial,sans-serif;fill:#1d4ed8}
      .greenText{font:900 13px Arial,sans-serif;fill:#047857}
      .redText{font:900 13px Arial,sans-serif;fill:#b91c1c}
      .price{font:900 40px Arial,sans-serif;fill:#111827;letter-spacing:-1.2px}
    </style>
  </defs>

  <rect width="1900" height="1200" fill="url(#bg)"/>
  <circle cx="230" cy="135" r="270" fill="#2563eb" opacity="0.13" filter="url(#soft)"/>
  <circle cx="1630" cy="180" r="330" fill="#10b981" opacity="0.11" filter="url(#soft)"/>
  <rect width="1900" height="1200" fill="url(#floorGrid)" opacity="0.35"/>

  <text x="950" y="72" text-anchor="middle" class="title">Согласованный смысл 3D-калькулятора</text>
  <text x="950" y="112" text-anchor="middle" class="subtitle">Реальный 3D-конструктор загрузки кузова: мебель, техника, коробки и паллеты с физикой, высотой, весом и подбором машины</text>

  <g filter="url(#shadow)">
    <rect x="48" y="150" width="1804" height="980" rx="40" fill="url(#glass)" stroke="white" stroke-opacity="0.9"/>
  </g>

  <!-- LEFT CONTROL PANEL -->
  <g>
    <rect x="80" y="185" width="590" height="910" rx="32" fill="white" fill-opacity="0.88" stroke="#dbe3ef"/>
    <text x="115" y="230" class="h">Левая панель: быстрый расчёт</text>
    <text x="115" y="258" class="muted">Пользователь выбирает квартиру, машину или добавляет вещи вручную</text>

    <text x="115" y="305" class="h2">1. Быстрое заполнение квартиры</text>
    <rect x="115" y="325" width="160" height="86" rx="20" fill="url(#blue)"/>
    <text x="195" y="354" text-anchor="middle" class="white">1 к.к.</text>
    <text x="195" y="378" text-anchor="middle" class="smallwhite">диван, кровать,</text>
    <text x="195" y="396" text-anchor="middle" class="smallwhite">техника, 15 коробок</text>
    <rect x="292" y="325" width="160" height="86" rx="20" fill="#fff" stroke="#cbd5e1"/>
    <text x="372" y="354" text-anchor="middle" class="h2">2 к.к.</text>
    <text x="372" y="378" text-anchor="middle" class="muted">+ шкафы, стол,</text>
    <text x="372" y="396" text-anchor="middle" class="muted">25 коробок</text>
    <rect x="469" y="325" width="160" height="86" rx="20" fill="#fff" stroke="#cbd5e1"/>
    <text x="549" y="354" text-anchor="middle" class="h2">3 к.к.</text>
    <text x="549" y="378" text-anchor="middle" class="muted">много мебели,</text>
    <text x="549" y="396" text-anchor="middle" class="muted">40+ коробок</text>

    <rect x="115" y="430" width="514" height="70" rx="20" fill="#ecfdf5" stroke="#10b981"/>
    <text x="140" y="462" class="greenText">Автоподбор после пресета:</text>
    <text x="140" y="485" class="txt">1 к.к. → Газель 4.2 м, если груз не превышает высоту/вес</text>

    <text x="115" y="545" class="h2">2. Машина с реальными размерами</text>
    <g>
      <rect x="115" y="565" width="118" height="76" rx="18" fill="#fff" stroke="#cbd5e1"/>
      <text x="174" y="594" text-anchor="middle" class="txt">Газель 3 м</text>
      <text x="174" y="618" text-anchor="middle" class="muted">3×1.9×1.8</text>
      <rect x="246" y="565" width="118" height="76" rx="18" fill="url(#blue)"/>
      <text x="305" y="594" text-anchor="middle" class="white">Газель 4.2</text>
      <text x="305" y="618" text-anchor="middle" class="smallwhite">4.2×2×2.1</text>
      <rect x="377" y="565" width="118" height="76" rx="18" fill="#fff" stroke="#cbd5e1"/>
      <text x="436" y="594" text-anchor="middle" class="txt">Фургон 5 м</text>
      <text x="436" y="618" text-anchor="middle" class="muted">5×2.1×2.1</text>
      <rect x="508" y="565" width="121" height="76" rx="18" fill="#fff" stroke="#cbd5e1"/>
      <text x="568" y="594" text-anchor="middle" class="txt">Фургон 6 м</text>
      <text x="568" y="618" text-anchor="middle" class="muted">6×2.2×2.2</text>
    </g>

    <text x="115" y="695" class="h2">3. Библиотека реальных 3D-предметов</text>
    <text x="115" y="720" class="muted">Все предметы — не плоские кнопки, а объёмные блоки с текстурами</text>

    <rect x="115" y="740" width="245" height="70" rx="18" fill="#f8fafc" stroke="#dbe3ef"/>
    <text x="137" y="768" class="h2">🛋 Диван</text><text x="137" y="792" class="muted">ткань · 210×90×85</text>
    <rect x="384" y="740" width="245" height="70" rx="18" fill="#f8fafc" stroke="#dbe3ef"/>
    <text x="406" y="768" class="h2">🚪 Шкаф</text><text x="406" y="792" class="muted">дерево · 120×60×210</text>
    <rect x="115" y="825" width="245" height="70" rx="18" fill="#f8fafc" stroke="#dbe3ef"/>
    <text x="137" y="853" class="h2">🧊 Холодильник</text><text x="137" y="877" class="muted">глянец · нельзя боком</text>
    <rect x="384" y="825" width="245" height="70" rx="18" fill="#f8fafc" stroke="#dbe3ef"/>
    <text x="406" y="853" class="h2">📦 Коробки</text><text x="406" y="877" class="muted">картон · можно штабелировать</text>
    <rect x="115" y="910" width="245" height="70" rx="18" fill="#f8fafc" stroke="#dbe3ef"/>
    <text x="137" y="938" class="h2">🛏 Кровать</text><text x="137" y="962" class="muted">разборная · плоский груз</text>
    <rect x="384" y="910" width="245" height="70" rx="18" fill="#f8fafc" stroke="#dbe3ef"/>
    <text x="406" y="938" class="h2">🎹 Пианино / сейф</text><text x="406" y="962" class="muted">тяжёлый · низ кузова</text>

    <rect x="115" y="1008" width="514" height="58" rx="18" fill="#0f172a"/>
    <text x="138" y="1033" class="white">Итог: пользователь может нажать «1к.к / 2к.к / 3к.к»</text>
    <text x="138" y="1055" class="smallwhite">и сразу увидеть заполненный кузов + рекомендованную машину</text>
  </g>

  <!-- MAIN 3D AREA -->
  <g>
    <rect x="705" y="185" width="1115" height="910" rx="32" fill="#eef6ff" fill-opacity="0.68" stroke="#dbeafe"/>
    <text x="740" y="230" class="h">Правая зона: большой настоящий 3D-кузов</text>
    <text x="740" y="258" class="muted">Камера крутится вокруг, можно зайти внутрь кузова, смотреть сверху, сбоку и в рентгене</text>

    <!-- view buttons -->
    <g>
      <rect x="740" y="285" width="145" height="42" rx="21" fill="url(#blue)"/>
      <text x="812" y="312" text-anchor="middle" class="white">Внутри кузова</text>
      <rect x="900" y="285" width="100" height="42" rx="21" fill="#fff" stroke="#cbd5e1"/>
      <text x="950" y="312" text-anchor="middle" class="txt">Сверху</text>
      <rect x="1015" y="285" width="90" height="42" rx="21" fill="#fff" stroke="#cbd5e1"/>
      <text x="1060" y="312" text-anchor="middle" class="txt">Сбоку</text>
      <rect x="1120" y="285" width="105" height="42" rx="21" fill="#fff" stroke="#cbd5e1"/>
      <text x="1172" y="312" text-anchor="middle" class="txt">Рентген</text>
      <rect x="1240" y="285" width="120" height="42" rx="21" fill="#fff" stroke="#cbd5e1"/>
      <text x="1300" y="312" text-anchor="middle" class="txt">Свободно</text>
      <rect x="1375" y="285" width="160" height="42" rx="21" fill="#ecfdf5" stroke="#10b981"/>
      <text x="1455" y="312" text-anchor="middle" class="greenText">Показать лучший кузов</text>
      <rect x="1550" y="285" width="230" height="42" rx="21" fill="#111827"/>
      <text x="1665" y="312" text-anchor="middle" class="smallwhite">ЛКМ камера · Drag предмет · колесо zoom</text>
    </g>

    <!-- 3d viewport -->
    <rect x="740" y="350" width="1040" height="575" rx="30" fill="#dbeafe" stroke="#bfdbfe"/>
    <ellipse cx="1280" cy="875" rx="420" ry="55" fill="#0f172a" opacity="0.16" filter="url(#soft)"/>

    <!-- cargo bay perspective -->
    <path d="M860 845 L1585 845 L1700 515 L995 515 Z" fill="url(#truckFloor)" stroke="#334155" stroke-width="4"/>
    <path d="M995 515 L1700 515 L1700 390 L995 390 Z" fill="#ffffff" fill-opacity="0.26" stroke="#2563eb" stroke-opacity="0.75" stroke-width="4"/>
    <path d="M860 845 L995 515 L995 390 L860 712 Z" fill="#ffffff" fill-opacity="0.22" stroke="#2563eb" stroke-opacity="0.75" stroke-width="4"/>
    <path d="M1585 845 L1700 515 L1700 390 L1585 712 Z" fill="#ffffff" fill-opacity="0.16" stroke="#2563eb" stroke-opacity="0.75" stroke-width="4"/>
    <path d="M860 712 L995 390 L1700 390 L1585 712 Z" fill="#ffffff" fill-opacity="0.08" stroke="#2563eb" stroke-opacity="0.28" stroke-width="2"/>

    <!-- perspective grid -->
    <g stroke="#2563eb" stroke-opacity="0.18" stroke-width="2">
      <path d="M910 845 L1035 515"/><path d="M980 845 L1098 515"/><path d="M1050 845 L1161 515"/><path d="M1120 845 L1224 515"/><path d="M1190 845 L1287 515"/><path d="M1260 845 L1350 515"/><path d="M1330 845 L1413 515"/><path d="M1400 845 L1476 515"/><path d="M1470 845 L1539 515"/><path d="M1540 845 L1602 515"/>
      <path d="M882 790 L1604 790"/><path d="M905 735 L1624 735"/><path d="M928 680 L1643 680"/><path d="M952 625 L1662 625"/><path d="M975 570 L1681 570"/>
    </g>

    <!-- 3d items: sofa -->
    <g transform="translate(970 725)">
      <path d="M0 55 L225 55 L260 -24 L35 -24 Z" fill="url(#fabricPattern)" stroke="#1e293b" stroke-width="4"/>
      <path d="M35 -24 L260 -24 L260 -92 L35 -92 Z" fill="#64748b" stroke="#1e293b" stroke-width="4"/>
      <path d="M0 55 L35 -24 L35 -92 L0 -12 Z" fill="#334155" stroke="#1e293b" stroke-width="4"/>
      <path d="M38 48 L76 48 L76 -18 L38 -18 Z" fill="#475569" opacity="0.75"/>
      <path d="M88 48 L126 48 L126 -18 L88 -18 Z" fill="#475569" opacity="0.75"/>
      <path d="M138 48 L176 48 L176 -18 L138 -18 Z" fill="#475569" opacity="0.75"/>
      <text x="130" y="7" text-anchor="middle" class="smallwhite">ДИВАН · ткань</text>
    </g>

    <!-- wardrobe wooden texture -->
    <g transform="translate(1110 615)">
      <path d="M0 165 L120 165 L148 0 L28 0 Z" fill="url(#woodPattern)" stroke="#4b3420" stroke-width="4"/>
      <path d="M28 0 L148 0 L148 -210 L28 -210 Z" fill="url(#woodPattern)" stroke="#4b3420" stroke-width="4"/>
      <path d="M0 165 L28 0 L28 -210 L0 -45 Z" fill="#6f5438" stroke="#4b3420" stroke-width="4"/>
      <line x1="88" y1="-195" x2="88" y2="-8" stroke="#4b3420" stroke-width="3"/>
      <circle cx="78" cy="-98" r="5" fill="#fbbf24"/>
      <circle cx="100" cy="-98" r="5" fill="#fbbf24"/>
      <text x="88" y="-72" text-anchor="middle" class="smallwhite">ШКАФ</text>
      <rect x="15" y="-228" width="122" height="26" rx="13" fill="#fef2f2" stroke="#ef4444"/>
      <text x="76" y="-210" text-anchor="middle" class="redText">выше кузова? warning</text>
    </g>

    <!-- selected fridge with gizmo -->
    <g transform="translate(1315 655)">
      <path d="M0 130 L82 130 L110 0 L28 0 Z" fill="#e2e8f0" stroke="#0f172a" stroke-width="4"/>
      <path d="M28 0 L110 0 L110 -185 L28 -185 Z" fill="#f8fafc" stroke="#0f172a" stroke-width="4"/>
      <path d="M0 130 L28 0 L28 -185 L0 -42 Z" fill="#cbd5e1" stroke="#0f172a" stroke-width="4"/>
      <path d="M38 -78 L103 -78" stroke="#94a3b8" stroke-width="5"/>
      <text x="66" y="-28" text-anchor="middle" font-family="Arial" font-weight="900" font-size="13" fill="#0f172a">ХОЛОД.</text>
      <path d="M-18 145 L98 145 L128 -202 L12 -202 Z" fill="none" stroke="#2563eb" stroke-width="6" stroke-dasharray="11 8"/>
      <!-- transform gizmo -->
      <line x1="58" y1="-215" x2="58" y2="-305" stroke="#10b981" stroke-width="9" stroke-linecap="round"/>
      <path d="M58 -324 L34 -287 L82 -287 Z" fill="#10b981"/>
      <text x="95" y="-287" class="greenText">Z поднять</text>
      <line x1="115" y1="70" x2="215" y2="18" stroke="#ef4444" stroke-width="9" stroke-linecap="round"/>
      <path d="M234 8 L190 8 L213 45 Z" fill="#ef4444"/>
      <text x="214" y="66" class="redText">X</text>
      <line x1="15" y1="126" x2="-82" y2="174" stroke="#2563eb" stroke-width="9" stroke-linecap="round"/>
      <path d="M-104 185 L-60 184 L-84 147 Z" fill="#2563eb"/>
      <text x="-102" y="210" class="blueText">Y/глубина</text>
      <circle cx="58" cy="-82" r="88" fill="none" stroke="#f59e0b" stroke-width="6" stroke-dasharray="10 8"/>
      <text x="130" y="-142" font-family="Arial" font-weight="900" font-size="13" fill="#b45309">вращение</text>
    </g>

    <!-- stacked boxes with collision gap -->
    <g transform="translate(1510 735)">
      <path d="M0 60 L90 60 L118 0 L28 0 Z" fill="url(#cardboardPattern)" stroke="#7c5c37" stroke-width="4"/>
      <path d="M28 0 L118 0 L118 -70 L28 -70 Z" fill="#c49a6a" stroke="#7c5c37" stroke-width="4"/>
      <path d="M0 60 L28 0 L28 -70 L0 -10 Z" fill="#a77b4e" stroke="#7c5c37" stroke-width="4"/>
      <path d="M16 -18 L106 -18 L134 -78 L44 -78 Z" fill="url(#cardboardPattern)" stroke="#7c5c37" stroke-width="4"/>
      <path d="M44 -78 L134 -78 L134 -148 L44 -148 Z" fill="#c49a6a" stroke="#7c5c37" stroke-width="4"/>
      <path d="M16 -18 L44 -78 L44 -148 L16 -88 Z" fill="#a77b4e" stroke="#7c5c37" stroke-width="4"/>
      <path d="M32 -96 L122 -96 L150 -156 L60 -156 Z" fill="url(#cardboardPattern)" stroke="#7c5c37" stroke-width="4"/>
      <path d="M60 -156 L150 -156 L150 -226 L60 -226 Z" fill="#c49a6a" stroke="#7c5c37" stroke-width="4"/>
      <path d="M32 -96 L60 -156 L60 -226 L32 -166 Z" fill="#a77b4e" stroke="#7c5c37" stroke-width="4"/>
      <text x="75" y="-48" text-anchor="middle" class="smallwhite">коробки</text>
    </g>

    <!-- pallet -->
    <g transform="translate(1395 850)">
      <path d="M0 38 L190 38 L222 -16 L34 -16 Z" fill="url(#wood)" stroke="#5b4631" stroke-width="4"/>
      <path d="M20 34 L48 -14M58 34 L86 -14M96 34 L124 -14M134 34 L162 -14M172 34 L200 -14" stroke="#5b4631" stroke-width="3" opacity="0.65"/>
      <path d="M40 -18 L82 -18 L82 -58 L40 -58 Z" fill="#3b82f6" stroke="#1d4ed8" stroke-width="3"/>
      <path d="M88 -18 L130 -18 L130 -58 L88 -58 Z" fill="#3b82f6" stroke="#1d4ed8" stroke-width="3"/>
      <path d="M136 -18 L178 -18 L178 -58 L136 -58 Z" fill="#3b82f6" stroke="#1d4ed8" stroke-width="3"/>
      <path d="M35 -63 L183 -63 L205 -105 L58 -105 Z" fill="#ffffff" opacity="0.22" stroke="#bfdbfe" stroke-width="3"/>
      <text x="110" y="24" text-anchor="middle" class="smallwhite">EUR паллета</text>
    </g>

    <!-- collision red ghost -->
    <g transform="translate(1015 540)" opacity="0.85">
      <path d="M0 90 L100 90 L124 0 L24 0 Z" fill="#ef4444" fill-opacity="0.32" stroke="#ef4444" stroke-width="5" stroke-dasharray="10 7"/>
      <path d="M24 0 L124 0 L124 -110 L24 -110 Z" fill="#ef4444" fill-opacity="0.2" stroke="#ef4444" stroke-width="5" stroke-dasharray="10 7"/>
      <text x="60" y="-126" text-anchor="middle" class="redText">нельзя: пересечение</text>
    </g>

    <!-- physics rules cards -->
    <rect x="760" y="370" width="315" height="104" rx="22" fill="#111827" fill-opacity="0.90"/>
    <text x="785" y="400" class="white">Физика и ограничения</text>
    <text x="785" y="425" class="smallwhite">• предметы не входят друг в друга</text>
    <text x="785" y="445" class="smallwhite">• нельзя выйти за стены/потолок кузова</text>
    <text x="785" y="465" class="smallwhite">• тяжёлое вниз, хрупкое не придавливать</text>

    <rect x="1460" y="370" width="290" height="138" rx="22" fill="white" fill-opacity="0.9" stroke="#cbd5e1"/>
    <text x="1485" y="400" class="h2">Подбор машины</text>
    <text x="1485" y="426" class="muted">1 к.к. загружена на 72%</text>
    <rect x="1485" y="440" width="220" height="10" rx="5" fill="#e2e8f0"/><rect x="1485" y="440" width="158" height="10" rx="5" fill="url(#green)"/>
    <text x="1485" y="472" class="greenText">Рекомендация: Газель 4.2 м</text>
    <text x="1485" y="494" class="muted">Газель 3 м — мало по объёму/высоте</text>

    <!-- bottom tools -->
    <rect x="740" y="950" width="1040" height="110" rx="26" fill="white" fill-opacity="0.9" stroke="#dbe3ef"/>
    <text x="765" y="985" class="h2">Инструменты как у настоящего грузчика</text>
    <g>
      <rect x="765" y="1004" width="118" height="36" rx="18" fill="#eff6ff" stroke="#2563eb"/>
      <text x="824" y="1027" text-anchor="middle" class="blueText">двигать XYZ</text>
      <rect x="895" y="1004" width="118" height="36" rx="18" fill="#fff7ed" stroke="#f59e0b"/>
      <text x="954" y="1027" text-anchor="middle" font-family="Arial" font-weight="900" font-size="13" fill="#b45309">крутить</text>
      <rect x="1025" y="1004" width="145" height="36" rx="18" fill="#ecfdf5" stroke="#10b981"/>
      <text x="1097" y="1027" text-anchor="middle" class="greenText">поднять/опустить</text>
      <rect x="1182" y="1004" width="130" height="36" rx="18" fill="#f8fafc" stroke="#cbd5e1"/>
      <text x="1247" y="1027" text-anchor="middle" class="muted">поставить сверху</text>
      <rect x="1324" y="1004" width="120" height="36" rx="18" fill="#fef2f2" stroke="#ef4444"/>
      <text x="1384" y="1027" text-anchor="middle" class="redText">коллизии</text>
      <rect x="1456" y="1004" width="125" height="36" rx="18" fill="#f8fafc" stroke="#cbd5e1"/>
      <text x="1518" y="1027" text-anchor="middle" class="muted">snap 10 см</text>
      <rect x="1593" y="1004" width="150" height="36" rx="18" fill="#f8fafc" stroke="#cbd5e1"/>
      <text x="1668" y="1027" text-anchor="middle" class="muted">авторасстановка</text>
    </g>
  </g>

  <!-- FINAL SUMMARY -->
  <g>
    <rect x="80" y="1138" width="1740" height="0" fill="white"/>
    <text x="950" y="1166" text-anchor="middle" font-family="Arial" font-size="18" font-weight="900" fill="#334155">Сначала согласуем этот принцип: настоящий 3D-симулятор загрузки кузова + пресеты 1к.к / 2к.к / 3к.к + автоподбор машины. После согласования — делаю реализацию.</text>
  </g>
</svg>
